<?xml version="1.0" encoding="UTF-8"?>
<svg id="Layer_1" xmlns="http://www.w3.org/2000/svg" version="1.1" viewBox="0 0 500 500">
  <!-- Generator: Adobe Illustrator 29.7.1, SVG Export Plug-In . SVG Version: 2.1.1 Build 8)  -->
  <defs>
    <style>
      .st0 {
        fill: #15803d;
      }
    </style>
  </defs>
  <g>
    <path class="st0" d="M213.57,252.96l-3.21-9.64h-19.36l-3.29,9.64h-11.09l19.82-54.48h8.34l19.89,54.48h-11.09ZM200.87,214.55l-6.89,19.82h13.54l-6.66-19.82Z"/>
    <path class="st0" d="M258.64,252.96l-10.56-18.97-10.48,18.97h-12.17l16.91-27.93-15.84-26.55h12.09l9.49,17.6,9.56-17.6h12.01l-15.84,26.55,16.99,27.93h-12.17Z"/>
    <path class="st0" d="M277.55,252.96v-54.48h10.63v54.48h-10.63Z"/>
    <path class="st0" d="M333.86,247.45c-3.83,3.83-8.49,5.97-14.69,5.97s-10.94-2.14-14.77-5.97c-5.51-5.51-5.36-12.32-5.36-21.73s-.15-16.22,5.36-21.73c3.82-3.83,8.57-5.97,14.77-5.97s10.86,2.14,14.69,5.97c5.51,5.51,5.43,12.32,5.43,21.73s.08,16.22-5.43,21.73ZM325.98,210.42c-1.53-1.76-3.9-2.91-6.81-2.91s-5.36,1.15-6.89,2.91c-2.07,2.3-2.6,4.82-2.6,15.3s.54,13.01,2.6,15.3c1.53,1.76,3.98,2.91,6.89,2.91s5.28-1.15,6.81-2.91c2.07-2.3,2.68-4.82,2.68-15.3s-.61-13.01-2.68-15.3Z"/>
    <path class="st0" d="M369.37,253.42c-11.17,0-20.05-7.57-20.05-19.13v-35.81h10.64v35.43c0,6.27,3.67,10.02,9.41,10.02s9.49-3.75,9.49-10.02v-35.43h10.56v35.81c0,11.55-8.88,19.13-20.05,19.13Z"/>
    <path class="st0" d="M416.27,253.42c-8.26,0-14.54-1.76-19.89-7.19l6.89-6.89c3.44,3.44,8.11,4.59,13.16,4.59,6.27,0,9.64-2.37,9.64-6.73,0-1.91-.54-3.52-1.68-4.59-1.07-.99-2.3-1.53-4.82-1.91l-6.58-.92c-4.67-.69-8.11-2.14-10.56-4.51-2.6-2.6-3.9-6.12-3.9-10.71,0-9.72,7.19-16.53,18.97-16.53,7.5,0,12.93,1.84,17.6,6.35l-6.73,6.66c-3.44-3.29-7.57-3.75-11.17-3.75-5.66,0-8.42,3.14-8.42,6.89,0,1.38.46,2.83,1.61,3.9,1.07.99,2.83,1.84,5.05,2.14l6.43.92c4.97.69,8.11,2.07,10.41,4.21,2.91,2.75,4.21,6.73,4.21,11.55,0,10.56-8.8,16.53-20.2,16.53Z"/>
  </g>
  <g>
    <path class="st0" d="M189.69,291.32h-3.51v-26.59h-9.38v-3.29h22.48v3.29h-9.59v26.59Z"/>
    <path class="st0" d="M213.1,270.32c2.89,0,5.23.87,7.02,2.6,1.79,1.74,2.7,4.08,2.74,7.05,0,.51,0,.91-.03,1.21-.02.29-.06.73-.14,1.32h-16.5c.26,1.97,1.03,3.53,2.33,4.66,1.3,1.13,3.01,1.7,5.13,1.7,1.24,0,2.45-.1,3.62-.3,1.17-.2,2.45-.48,3.84-.85l.6,2.85c-1.39.4-2.71.74-3.98,1.01-1.26.27-2.66.41-4.19.41-1.72,0-3.26-.27-4.63-.82-1.37-.55-2.52-1.3-3.45-2.25-.93-.95-1.65-2.09-2.14-3.43-.49-1.33-.74-2.79-.74-4.36s.26-3.13.79-4.44,1.26-2.45,2.19-3.4c.93-.95,2.04-1.68,3.32-2.19,1.28-.51,2.69-.77,4.22-.77ZM213.15,273.17c-2.05,0-3.69.59-4.93,1.78s-1.96,2.79-2.14,4.8h13.65c-.07-2.08-.71-3.7-1.92-4.85-1.21-1.15-2.76-1.73-4.66-1.73Z"/>
    <path class="st0" d="M244.08,273.88c-1.17-.29-2.31-.52-3.43-.69-1.12-.16-2.09-.25-2.93-.25-2.49,0-4.47.71-5.95,2.14s-2.22,3.34-2.22,5.76.72,4.28,2.17,5.7,3.32,2.14,5.62,2.14c.91,0,2-.12,3.26-.36,1.26-.24,2.53-.5,3.81-.8l.6,2.8c-1.24.4-2.55.73-3.92.99s-2.64.38-3.81.38c-1.64,0-3.14-.26-4.5-.77-1.35-.51-2.52-1.25-3.51-2.22-.99-.97-1.76-2.12-2.3-3.45-.55-1.33-.82-2.82-.82-4.47s.27-3.13.82-4.47c.55-1.33,1.32-2.47,2.33-3.4,1.01-.93,2.21-1.65,3.62-2.17,1.41-.51,2.95-.77,4.63-.77,1.02,0,2.18.1,3.48.3,1.3.2,2.48.48,3.54.85l-.49,2.74Z"/>
    <path class="st0" d="M261.07,270.32c2.6,0,4.63.74,6.11,2.22,1.48,1.48,2.22,3.54,2.22,6.17v12.61h-3.4v-11.95c0-1.86-.48-3.31-1.43-4.33-.95-1.02-2.3-1.54-4.06-1.54h-7.18v17.82h-3.4v-31.03h3.4v10.03h7.73Z"/>
    <path class="st0" d="M284.87,270.37c2.63,0,4.68.74,6.14,2.22,1.46,1.48,2.19,3.54,2.19,6.17v12.61h-3.34v-11.95c0-1.86-.48-3.31-1.45-4.33-.97-1.02-2.33-1.54-4.08-1.54h-7.18v17.82h-3.34v-21h11.08Z"/>
    <path class="st0" d="M308.17,270.04c1.61,0,3.09.27,4.44.8,1.35.53,2.52,1.27,3.51,2.22.99.95,1.76,2.09,2.3,3.43.55,1.34.82,2.81.82,4.41s-.27,3.14-.82,4.5c-.55,1.35-1.32,2.5-2.3,3.45-.99.95-2.16,1.69-3.51,2.22-1.35.53-2.83.8-4.44.8s-3.14-.27-4.5-.8-2.52-1.27-3.51-2.22c-.99-.95-1.76-2.1-2.3-3.45-.55-1.35-.82-2.85-.82-4.5s.27-3.08.82-4.41c.55-1.33,1.32-2.48,2.3-3.43.99-.95,2.16-1.69,3.51-2.22,1.35-.53,2.85-.8,4.5-.8ZM308.17,288.74c2.27,0,4.11-.71,5.54-2.14,1.43-1.43,2.14-3.33,2.14-5.7,0-1.17-.19-2.22-.58-3.15-.38-.93-.91-1.74-1.59-2.41-.68-.68-1.48-1.2-2.41-1.56-.93-.36-1.97-.55-3.1-.55s-2.17.18-3.1.55c-.93.37-1.74.89-2.41,1.56s-1.21,1.48-1.59,2.41-.58,1.98-.58,3.15c0,2.38.71,4.28,2.14,5.7,1.43,1.43,3.27,2.14,5.54,2.14Z"/>
    <path class="st0" d="M327.53,291.32h-3.34v-31.03h3.34v31.03Z"/>
    <path class="st0" d="M343.59,270.04c1.61,0,3.09.27,4.44.8,1.35.53,2.52,1.27,3.51,2.22.99.95,1.76,2.09,2.3,3.43.55,1.34.82,2.81.82,4.41s-.27,3.14-.82,4.5c-.55,1.35-1.32,2.5-2.3,3.45-.99.95-2.16,1.69-3.51,2.22-1.35.53-2.83.8-4.44.8s-3.14-.27-4.5-.8-2.52-1.27-3.51-2.22c-.99-.95-1.76-2.1-2.3-3.45-.55-1.35-.82-2.85-.82-4.5s.27-3.08.82-4.41c.55-1.33,1.32-2.48,2.3-3.43.99-.95,2.16-1.69,3.51-2.22,1.35-.53,2.85-.8,4.5-.8ZM343.59,288.74c2.27,0,4.11-.71,5.54-2.14,1.43-1.43,2.14-3.33,2.14-5.7,0-1.17-.19-2.22-.58-3.15-.38-.93-.91-1.74-1.59-2.41-.68-.68-1.48-1.2-2.41-1.56-.93-.36-1.97-.55-3.1-.55s-2.17.18-3.1.55c-.93.37-1.74.89-2.41,1.56s-1.21,1.48-1.59,2.41-.58,1.98-.58,3.15c0,2.38.71,4.28,2.14,5.7,1.43,1.43,3.27,2.14,5.54,2.14Z"/>
    <path class="st0" d="M375.29,291.54h-7.24c-1.54,0-2.93-.26-4.17-.77-1.24-.51-2.3-1.23-3.18-2.17-.88-.93-1.55-2.04-2.03-3.32-.47-1.28-.71-2.69-.71-4.22s.24-3.07.71-4.39,1.15-2.45,2.03-3.4c.88-.95,1.96-1.68,3.23-2.19,1.28-.51,2.7-.77,4.28-.77h10.42v20.34c0,1.68-.25,3.22-.74,4.61-.49,1.39-1.21,2.59-2.14,3.59-.93,1-2.08,1.78-3.43,2.33-1.35.55-2.91.82-4.66.82-1.39,0-2.73-.16-4.03-.47-1.3-.31-2.51-.69-3.65-1.12l.6-2.85c1.17.36,2.35.68,3.54.93,1.19.26,2.35.38,3.48.38,2.23,0,4.02-.63,5.37-1.89,1.35-1.26,2.12-3.08,2.3-5.46ZM368.6,273.33c-2.41,0-4.23.73-5.45,2.19-1.23,1.46-1.84,3.34-1.84,5.65,0,1.06.17,2.04.49,2.93.33.9.8,1.67,1.43,2.33.62.66,1.37,1.18,2.25,1.56.88.38,1.86.58,2.96.58h6.85v-15.19c-.84,0-1.66-.02-2.47-.05h-4.22Z"/>
    <path class="st0" d="M386.91,291.37h-3.34v-21h3.34v21ZM386.91,262.04h-3.29v3.4h3.29v-3.4Z"/>
    <path class="st0" d="M401.28,270.32c2.89,0,5.23.87,7.02,2.6,1.79,1.74,2.7,4.08,2.74,7.05,0,.51,0,.91-.03,1.21-.02.29-.06.73-.14,1.32h-16.5c.26,1.97,1.03,3.53,2.33,4.66,1.3,1.13,3.01,1.7,5.13,1.7,1.24,0,2.45-.1,3.62-.3,1.17-.2,2.45-.48,3.84-.85l.6,2.85c-1.39.4-2.71.74-3.98,1.01-1.26.27-2.66.41-4.19.41-1.72,0-3.26-.27-4.63-.82-1.37-.55-2.52-1.3-3.45-2.25-.93-.95-1.65-2.09-2.14-3.43-.49-1.33-.74-2.79-.74-4.36s.26-3.13.79-4.44,1.26-2.45,2.19-3.4c.93-.95,2.04-1.68,3.32-2.19,1.28-.51,2.69-.77,4.22-.77ZM401.33,273.17c-2.05,0-3.69.59-4.93,1.78s-1.96,2.79-2.14,4.8h13.65c-.07-2.08-.71-3.7-1.92-4.85-1.21-1.15-2.76-1.73-4.66-1.73Z"/>
    <path class="st0" d="M415.15,286.99c1.46.66,2.94,1.17,4.44,1.53,1.5.37,2.83.55,4,.55,1.46,0,2.67-.27,3.62-.82.95-.55,1.43-1.35,1.43-2.41,0-.58-.17-1.07-.49-1.45-.33-.38-.8-.69-1.4-.93-.6-.24-1.32-.45-2.14-.63-.82-.18-1.71-.38-2.66-.6-2.23-.47-3.91-1.11-5.04-1.92-1.13-.8-1.7-2.06-1.7-3.78,0-1.97.72-3.49,2.17-4.55s3.43-1.59,5.95-1.59c1.35,0,2.73.15,4.14.44,1.41.29,2.68.64,3.81,1.04l-.93,2.69c-1.28-.4-2.56-.72-3.84-.96-1.28-.24-2.41-.36-3.4-.36-1.46,0-2.59.27-3.37.79-.79.53-1.18,1.31-1.18,2.33,0,.48.11.88.33,1.21s.55.6.99.82c.44.22.98.42,1.62.6.64.18,1.36.37,2.17.55,1.21.26,2.3.53,3.29.82.99.29,1.85.66,2.58,1.1.73.44,1.3.99,1.7,1.64.4.66.6,1.48.6,2.47,0,2.12-.78,3.72-2.33,4.8-1.55,1.08-3.57,1.62-6.06,1.62-1.39,0-2.89-.19-4.5-.58-1.61-.38-3.14-.89-4.61-1.51l.82-2.91Z"/>
  </g>
  <path class="st0" d="M63.53,197.99h94.18v94.18h-77.23c-9.36,0-16.96-7.6-16.96-16.96v-77.23h0Z"/>
  <g>
    <path d="M144.39,224.44h-28.11c15.16,8.99,27.13,33.1,28.11,50.13v4.28h-13.2c.02-.55.03-1.1.03-1.66,0-24.71-21.57-48.62-45.43-52.27h0c-2.07-.32-4.15-.48-6.23-.48h-2.7v-13.13h67.54v13.13Z"/>
    <path d="M127.29,278.85h-13.39c0-17.59-9.84-28.96-24.01-34.71v34.71h-13.04v-50.24h3.13c3.38.12,6.7.62,9.91,1.47,21.02,5.57,37.4,25.93,37.4,48.77Z"/>
    <circle cx="100.11" cy="267.65" r="5.44"/>
  </g>
</svg>